<?xml version="1.0" encoding="utf-8"?>
<!-- Generator: Adobe Illustrator 25.0.0, SVG Export Plug-In . SVG Version: 6.00 Build 0)  -->
<svg version="1.1" id="Layer_1" xmlns="http://www.w3.org/2000/svg" xmlns:xlink="http://www.w3.org/1999/xlink" x="0px" y="0px"
	 viewBox="0 0 700.9 209.8" style="enable-background:new 0 0 700.9 209.8;" xml:space="preserve">
<style type="text/css">
	.st0{fill:#AEC90B;}
	.st1{fill:#004519;}
</style>
<g>
	<polygon class="st0" points="119,111.7 163.6,209.8 138.2,209.8 115.1,154.5 92,209.8 66.6,209.8 111.2,111.7 48.5,199.3 
		35.8,177.3 72.1,129.7 12.7,137.3 0,115.3 107.2,104.9 0,94.4 12.7,72.4 72.1,80.1 35.8,32.5 48.5,10.4 111.2,98.1 66.6,0 92,0 
		115.1,55.3 138.2,0 163.6,0 119,98.1 181.6,10.4 194.4,32.5 158,80.1 217.4,72.4 230.2,94.4 122.9,104.9 230.2,115.3 217.4,137.3 
		158,129.7 194.4,177.3 181.6,199.3 	"/>
	<path class="st1" d="M442.5,150.5L488,79.7h-43.2V56.3h78.7v21.2L478.1,149h45.3v24.4h-81c-0.6,0.1-1.2,0.1-1.9,0.1
		c-0.7,0-1.7,0.1-3.1,0.1c-6.2,0-11.5-1.2-15.9-3.5c-4.4-2.4-7.9-5.9-10.6-10.8c-5.6,5.4-11,9.4-16.2,11.9
		c-5.2,2.5-10.8,3.8-16.7,3.8c-9,0-16.1-3-21.6-8.9c-5.4-5.9-8.1-13.7-8.1-23.5c0-13.1,4.8-23.6,14.5-31.5
		c9.7-7.9,24.2-13.2,43.6-15.8v-9.2c0-3.5-1.4-6.3-4.2-8.5c-2.8-2.2-6.6-3.3-11.2-3.3c-6.4,0-18.1,0.6-23.2,4.6l11-24.9
		c4.5-0.9,9.1-1.3,14-1.3c14.5,0,25.5,3.4,33,10.2c7.4,6.8,11.2,16.8,11.2,30.1v50.4c0,1.9,0.5,3.5,1.4,4.7
		C439.4,149.2,440.7,150.1,442.5,150.5L442.5,150.5z M406.4,113.1c-8.9,1.1-15.9,3.9-21.1,8.3c-5.2,4.4-7.8,9.6-7.8,15.7
		c0,4.3,1.2,7.7,3.6,10.4c2.3,2.6,5.3,4,9,4c5.1,0,9.2-2.1,12-6.4c2.9-4.3,4.3-10.4,4.3-18.2V113.1L406.4,113.1z"/>
	<path class="st1" d="M558.4,113.8c0,16.3,1.1,26.5,3.2,30.6c2.1,4.1,6,6.1,11.5,6.1c5.5,0,9.3-2,11.5-6c2.1-4,3.2-14.2,3.2-30.8
		c0-16.5-1.1-26.7-3.2-30.7c-2.1-4-5.9-6-11.5-6c-5.6,0-9.4,2-11.5,6.1C559.5,87.2,558.4,97.5,558.4,113.8L558.4,113.8z
		 M618.9,123.7c0,17.2-3.8,30.1-11.3,38.6c-7.5,8.5-19,12.7-34.4,12.7c-15.4,0-26.9-4.3-34.4-12.7c-7.6-8.5-11.3-21.4-11.3-38.6
		v-19.8c0-17.2,3.8-30.1,11.3-38.5c7.5-8.5,19-12.7,34.4-12.7s26.9,4.2,34.4,12.7c7.6,8.4,11.3,21.3,11.3,38.5V123.7L618.9,123.7z"
		/>
	<polygon class="st1" points="628.1,172.4 628.1,7.3 658.7,7.3 658.7,172.4 	"/>
	<path class="st1" d="M670.2,33.8V7.3h30.6v26.5H670.2L670.2,33.8z M670.2,172.4V55.2h30.6v117.1L670.2,172.4L670.2,172.4z"/>
	<polygon class="st1" points="308.3,173.6 305.8,173.6 233.2,14 271.9,14 307,98.1 342.1,14 380.8,14 	"/>
</g>
</svg>
